<svg data-name="livetype" xmlns="http://www.w3.org/2000/svg" viewBox="0 0 145 45"><title>Download_on_the_App_Store_Badge_FI</title><path d="M135.33 0H7.63a12.14 12.14 0 0 0-2 .2 6.32 6.32 0 0 0-1.96.72A6.61 6.61 0 0 0 2 2.25 7.06 7.06 0 0 0 .83 4.07 8 8 0 0 0 .2 6.21 16.16 16.16 0 0 0 0 8.46v28a16.16 16.16 0 0 0 .2 2.33 8 8 0 0 0 .63 2.14A7 7 0 0 0 2 42.75a6.44 6.44 0 0 0 1.64 1.33 6.35 6.35 0 0 0 1.93.71 12.36 12.36 0 0 0 2 .2h129.79a12.2 12.2 0 0 0 2-.2 6.38 6.38 0 0 0 3.58-2 7.21 7.21 0 0 0 1.2-1.82 8 8 0 0 0 .63-2.14 16.8 16.8 0 0 0 .19-2.25v-1-24.85V9.5v-1a16.8 16.8 0 0 0-.19-2.25 8 8 0 0 0-.63-2.14A7.27 7.27 0 0 0 143 2.25a6.62 6.62 0 0 0-1.67-1.33 6.41 6.41 0 0 0-1.94-.71 12 12 0 0 0-2-.2h-2z" fill="#b7b7b7"/><path d="M8.57 44h-.92a11.65 11.65 0 0 1-1.9-.18 5.54 5.54 0 0 1-3.1-1.76 6 6 0 0 1-1-1.57 6.93 6.93 0 0 1-.55-1.86 15.44 15.44 0 0 1-.2-2.11V9.5v-1a15.39 15.39 0 0 1 .17-2.11 7 7 0 0 1 .55-1.87 6.06 6.06 0 0 1 1-1.57 5.72 5.72 0 0 1 1.45-1.16 5.52 5.52 0 0 1 1.68-.61A11.56 11.56 0 0 1 7.66 1h129.69a11.37 11.37 0 0 1 1.89.18 5.49 5.49 0 0 1 3.11 1.76 6.27 6.27 0 0 1 1 1.58 7 7 0 0 1 .54 1.86 16.16 16.16 0 0 1 .18 2.12v27.98a15.83 15.83 0 0 1-.17 2.09 7 7 0 0 1-.55 1.88 6.17 6.17 0 0 1-1 1.56 5.52 5.52 0 0 1-3.11 1.77 11.52 11.52 0 0 1-1.9.18H8.57z" fill="#050605"/><g data-name="&lt;Gruppe&gt;" fill="#fff"><path data-name="&lt;Pfad&gt;" d="M25.09 22.84a5.57 5.57 0 0 1 2.65-4.67 5.7 5.7 0 0 0-4.49-2.43c-1.89-.2-3.72 1.13-4.68 1.13s-2.46-1.11-4.06-1.08a6 6 0 0 0-5 3.07c-2.21 3.77-.59 9.3 1.49 12.35 1 1.49 2.26 3.16 3.86 3.1s2.14-1 4-1 2.41 1 4 1 2.73-1.5 3.74-3a12.33 12.33 0 0 0 1.71-3.48 5.38 5.38 0 0 1-3.22-4.99zM22 13.74a5.48 5.48 0 0 0 1.25-3.93 5.58 5.58 0 0 0-3.61 1.87 5.22 5.22 0 0 0-1.29 3.78A4.61 4.61 0 0 0 22 13.74z"/></g><g data-name="&lt;Gruppe&gt;" fill="#fff"><path d="M41.54 16.54h-4.19V9.83h1v5.75h3.14zM42.59 15.11c0-.91.68-1.44 1.88-1.51l1.37-.08v-.44c0-.54-.35-.84-1-.84s-.94.2-1.06.56h-1c.1-.87.92-1.43 2.07-1.43s2 .63 2 1.7v3.46h-1v-.71h-.05a1.7 1.7 0 0 1-1.52.8 1.53 1.53 0 0 1-1.69-1.51zm3.26-.43v-.42l-1.24.08c-.7 0-1 .28-1 .73s.4.72.94.72a1.19 1.19 0 0 0 1.3-1.12zM49.76 10.21v1.29h1.1v.84h-1.1v2.6c0 .53.22.76.72.76h.38v.83a3.27 3.27 0 0 1-.54.05c-1.11 0-1.55-.39-1.55-1.37v-2.87H48v-.84h.8v-1.29zM51.89 15.11c0-.91.68-1.44 1.88-1.51l1.37-.08v-.44c0-.54-.35-.84-1-.84s-.94.2-1.06.56h-1c.1-.87.92-1.43 2.07-1.43s2 .63 2 1.7v3.46h-1v-.71h-.05a1.7 1.7 0 0 1-1.52.8 1.53 1.53 0 0 1-1.69-1.51zm3.26-.43v-.42l-1.24.08c-.7 0-1 .28-1 .73s.4.72.94.72a1.19 1.19 0 0 0 1.3-1.12zM57.42 15.11c0-.91.68-1.44 1.88-1.51l1.37-.08v-.44c0-.54-.35-.84-1-.84s-.94.2-1.06.56h-1c.1-.87.92-1.43 2.07-1.43s2 .63 2 1.7v3.46h-1v-.71h-.08a1.7 1.7 0 0 1-1.52.8 1.53 1.53 0 0 1-1.66-1.51zm3.26-.43v-.42l-1.24.08c-.7 0-1 .28-1 .73s.4.72.94.72a1.19 1.19 0 0 0 1.3-1.12z"/></g><path d="M44 29.59h-4.83L38 33h-2l4.55-12.7h2.13L47.27 33h-2.08zM39.68 28h3.84l-1.89-5.58h-.05zM57.19 28.39c0 2.88-1.54 4.73-3.87 4.73a3.14 3.14 0 0 1-2.92-1.62v4.59h-1.9V23.75h1.8v1.54a3.29 3.29 0 0 1 3-1.64c2.34 0 3.89 1.86 3.89 4.74zm-2 0c0-1.88-1-3.11-2.45-3.11s-2.43 1.26-2.43 3.11 1 3.12 2.43 3.12 2.5-1.23 2.5-3.12zM67.4 28.39c0 2.88-1.54 4.73-3.87 4.73a3.14 3.14 0 0 1-2.92-1.62v4.59h-1.9V23.75h1.84v1.54a3.29 3.29 0 0 1 3-1.64c2.3 0 3.85 1.86 3.85 4.74zm-2 0c0-1.88-1-3.11-2.45-3.11s-2.43 1.26-2.43 3.11 1 3.12 2.43 3.12 2.49-1.23 2.49-3.12zM74.15 29.48c.14 1.26 1.37 2.09 3 2.09s2.76-.83 2.76-2c0-1-.7-1.58-2.34-2L76 27.22c-2.34-.56-3.42-1.66-3.42-3.43 0-2.19 1.91-3.7 4.63-3.7s4.53 1.51 4.59 3.7h-1.97c-.12-1.27-1.16-2-2.7-2s-2.58.78-2.58 1.9c0 .9.67 1.43 2.31 1.83l1.4.34c2.61.62 3.69 1.67 3.69 3.53 0 2.38-1.9 3.87-4.91 3.87-2.82 0-4.73-1.46-4.85-3.76zM86.06 21.56v2.19h1.76v1.51h-1.76v5.11c0 .79.35 1.16 1.13 1.16a6 6 0 0 0 .63 0V33a5.23 5.23 0 0 1-1.06.09c-1.88 0-2.61-.71-2.61-2.5v-5.33H82.8v-1.51h1.35v-2.19zM88.85 28.39c0-2.92 1.72-4.75 4.4-4.75s4.4 1.83 4.4 4.75-1.7 4.75-4.4 4.75-4.4-1.83-4.4-4.75zm6.86 0c0-2-.92-3.18-2.46-3.18s-2.46 1.19-2.46 3.18.92 3.18 2.46 3.18 2.46-1.17 2.46-3.18zM99.22 23.75H101v1.58a2.21 2.21 0 0 1 2.23-1.68 2.94 2.94 0 0 1 .65.07v1.78a2.66 2.66 0 0 0-.86-.12 1.92 1.92 0 0 0-2 2.13V33h-1.9zM112.73 30.3c-.26 1.68-1.9 2.84-4 2.84-2.7 0-4.37-1.81-4.37-4.71s1.68-4.8 4.29-4.8 4.18 1.76 4.18 4.57v.65h-6.55V29a2.42 2.42 0 0 0 2.49 2.63 2.1 2.1 0 0 0 2.14-1.3zm-6.43-2.77h4.64a2.23 2.23 0 0 0-2.27-2.35 2.35 2.35 0 0 0-2.37 2.35zM117.87 23.65c2.05 0 3.53 1.14 3.57 2.78h-1.79c-.08-.82-.78-1.32-1.83-1.32s-1.72.48-1.72 1.2c0 .56.46.93 1.42 1.16l1.56.36c1.87.45 2.57 1.14 2.57 2.49 0 1.67-1.59 2.82-3.85 2.82s-3.65-1.14-3.8-2.81h1.89c.13.89.85 1.37 2 1.37s1.85-.47 1.85-1.21c0-.57-.35-.88-1.32-1.13l-1.66-.36c-1.67-.41-2.52-1.26-2.52-2.55 0-1.69 1.47-2.8 3.63-2.8zM125.7 21.56v2.19h1.76v1.51h-1.76v5.11c0 .79.35 1.16 1.13 1.16a6 6 0 0 0 .63 0V33a5.23 5.23 0 0 1-1.06.09c-1.88 0-2.61-.71-2.61-2.5v-5.33h-1.35v-1.51h1.35v-2.19zM128.68 30.39c0-1.62 1.24-2.6 3.45-2.73l2.54-.14v-.71c0-1-.68-1.61-1.83-1.61a1.77 1.77 0 0 0-1.95 1.31h-1.79c.05-1.68 1.61-2.86 3.78-2.86s3.68 1.21 3.68 3V33h-1.82v-1.5a3.32 3.32 0 0 1-2.93 1.68 2.81 2.81 0 0 1-3.13-2.79zm6-.84v-.71l-2.28.14c-1.14.07-1.78.56-1.78 1.36s.67 1.34 1.69 1.34a2.22 2.22 0 0 0 2.35-2.13z" fill="#fff"/></svg>