<svg width="50" height="50" viewBox="0 0 50 50" class="" aria-hidden="true" xmlns="http://www.w3.org/2000/svg" xmlns:xlink="http://www.w3.org/1999/xlink"><g fill="none"><path fill="#FFFFFF" d="M42.6953125,48.5 L7.6953125,48.5 C4.38125,48.5 1.6953125,45.8140625 1.6953125,42.5 L1.6953125,7.5 C1.6953125,4.1859375 4.38125,1.5 7.6953125,1.5 L42.6953125,1.5 C46.009375,1.5 48.6953125,4.1859375 48.6953125,7.5 L48.6953125,42.5 C48.6953125,45.8140625 46.009375,48.5 42.6953125,48.5 Z"></path><path fill="#007AC9" d="M0.0015625,6.190625 C0.0015625,2.815625 2.8140625,0.003125 6.1890625,0.003125 L43.6859375,0.003125 C47.1859375,0.003125 49.9984375,2.815625 49.9984375,6.190625 L49.9984375,43.6875 C49.9984375,47.1875 47.1859375,50 43.6859375,50 L6.1890625,50 C2.8140625,50 0.0015625,47.1875 0.0015625,43.6875 L0.0015625,6.190625 Z M25.0625,5.378125 C19.875,5.378125 15.375,5.628125 10.4390625,6.315625 C8.9390625,6.503125 8.0640625,7.378125 8.0640625,8.690625 L8.0640625,37.9375 C8.0640625,38.875 8.7515625,39.5 9.3765625,39.6875 L11.2515625,40 L11.2515625,43.9375 C11.2515625,44.375 11.6265625,44.6875 12.1265625,44.6875 L15.1265625,44.6875 C15.5015625,44.6875 15.8765625,44.375 15.8765625,43.9375 L15.8765625,40.4375 C18.3140625,40.75 21.6265625,40.875 24.9390625,40.875 C28.3140625,40.875 31.7515625,40.75 34.1265625,40.4375 L34.1265625,43.9375 C34.1265625,44.375 34.5640625,44.6875 34.9390625,44.6875 L37.9390625,44.6875 C38.4390625,44.6875 38.8140625,44.375 38.8140625,43.9375 L38.8140625,40 L40.6890625,39.6875 C41.3765625,39.5 42.0015625,38.9375 42.0015625,37.9375 L42.0015625,8.690625 C42.0015625,7.378125 41.1265625,6.503125 39.6265625,6.315625 C34.6265625,5.690625 30.065625,5.378125 25.065625,5.378125 L25.0625,5.378125 Z M37.9984375,30.3140625 C34.4359375,30.9390625 29.7484375,31.5640625 25.1875,31.5640625 C20.375,31.5640625 15.8140625,31.0015625 12.1890625,30.1890625 C11.1890625,30.0015625 10.8140625,29.6265625 10.8140625,28.8140625 L10.8140625,10.565625 C10.8140625,9.753125 11.1890625,9.190625 12.1890625,9.190625 L37.9984375,9.315625 C38.9984375,9.315625 39.3109375,9.878125 39.3109375,10.690625 L39.3109375,28.9390625 C39.3109375,29.7515625 38.9984375,30.1890625 37.9984375,30.3140625 L37.9984375,30.3140625 Z M11.8125,35.3140625 C11.875,34.5015625 12.625,33.7515625 13.5,33.7515625 C14.375,33.7515625 15.125,34.5015625 15.125,35.3140625 C15.125,36.2515625 14.375,37.0015625 13.5,37.0015625 C12.5625,36.9390625 11.8125,36.1890625 11.8125,35.3140625 L11.8125,35.3140625 Z M34.6859375,35.3140625 C34.7484375,34.5015625 35.4984375,33.7515625 36.3109375,33.7515625 C37.1859375,33.7515625 37.9359375,34.5015625 37.9359375,35.3140625 C37.9359375,36.2515625 37.1859375,37.0015625 36.3109375,37.0015625 C35.4359375,36.9390625 34.6859375,36.1890625 34.6859375,35.3140625 Z"></path></g></svg>