<svg xmlns:xlink="http://www.w3.org/1999/xlink" width="283.46" height="283.46" viewBox="0 0 283.46 283.46"
    aria-hidden="true" xmlns="http://www.w3.org/2000/svg">
    <path fill="#007AC9"
        d="M0 248.03c0 19.49 15.95 35.44 35.44 35.44h212.59c19.49 0 35.43-15.95 35.43-35.44V35.43C283.46 15.94 267.52 0 248.03 0H35.44C15.95 0 0 15.94 0 35.43v212.6z">
    </path>
    <path fill="#FFFFFF"
        d="M254.4 74.92l-44.77-44.73c-3.68-3.67-9.7-3.67-13.37 0l-44.78 44.73c-3.68 3.67-.97 9.83 4.35 9.83h9.79v49.69h74.6V84.75h9.85c5.03 0 8.01-6.16 4.33-9.83m-65.06 44.63h-12.06v-13.01h12.06v13.01zm0-20.79h-12.06V85.75h12.06v13.01zm19.98 20.79h-12.06v-13.01h12.06v13.01zm0-20.79h-12.06V85.75h12.06v13.01zm-88.24 105.79l11.29-1.22c3.21-.31 5.95 1.98 5.95 5.19 0 2.75-1.98 5.03-4.73 5.34l-11.14 1.37c-3.35.46-6.26-2.13-6.26-5.49.01-2.6 2.14-4.89 4.89-5.19zm-53.1 0c2.74.3 4.88 2.59 4.88 5.19 0 3.36-2.9 5.95-6.25 5.49l-11.14-1.37c-2.75-.31-4.73-2.59-4.73-5.34 0-3.2 2.75-5.49 5.95-5.19l11.29 1.22zm-14.34-60.58h81.94c1.53 10.38 2.74 23.19 2.74 41.66H50.74c0-18.62 1.22-31.44 2.9-41.66zm40.89-23.5c-15.87 0-22.73.92-37.38 3.05-4.88.61-7.17 3.2-8.24 7.48-1.52 6.1-3.35 15.87-5.03 35.86-4.58-1.07-6.26-1.37-7.78-1.37-3.51 0-6.26 2.59-6.26 6.25 0 3.2 2.29 5.95 5.64 6.71l7.32 1.53c-.15 4.58-.31 9.31-.31 14.19 0 14.65 1.07 28.99 1.68 32.19.46 2.75 2.44 5.19 4.88 5.65l3.66.61v12.96c0 1.38 1.38 2.45 2.9 2.45H66.9c1.22 0 2.75-1.07 2.75-2.45v-11.13c7.48.76 14.64 1.22 24.87 1.22 10.22 0 17.4-.46 24.87-1.22v11.13c0 1.38 1.53 2.45 2.75 2.45h11.29c1.53 0 2.9-1.07 2.9-2.45v-12.96l3.66-.61c2.44-.46 4.42-2.9 4.88-5.65.61-3.2 1.68-17.54 1.68-32.19 0-4.88-.15-9.61-.3-14.19l7.33-1.53c3.36-.76 5.64-3.51 5.64-6.71 0-3.66-2.75-6.25-6.26-6.25-1.52 0-3.2.3-7.78 1.37-1.68-19.99-3.51-29.75-4.88-35.86-.91-4.27-3.51-6.87-8.39-7.48-14.64-2.13-21.51-3.05-37.38-3.05z">
    </path>
</svg>