<svg width="50" height="50" viewBox="0 0 50 50" class="" aria-hidden="true" xmlns="http://www.w3.org/2000/svg" xmlns:xlink="http://www.w3.org/1999/xlink"><g fill="none"><path fill="#FFFFFF" d="M43,49 L8,49 C4.6859375,49 2,46.3140625 2,43 L2,8 C2,4.6859375 4.6859375,2 8,2 L43,2 C46.3140625,2 49,4.6859375 49,8 L49,43 C49,46.3140625 46.3140625,49 43,49 Z"></path><path fill="#8C4799" d="M0,6.18788674 C0,2.81267579 2.81267579,0 6.18788674,0 L43.6871054,0 C47.1873242,0 50,2.81267579 50,6.18788674 L50,43.6871054 C50,47.1873242 47.1873242,50 43.6871054,50 L6.18788674,50 C2.81267579,50 0,47.1873242 0,43.6871054 L0,6.18788674 Z M38.3742734,6.37539846 C36.9991874,5.12532033 31.0613163,3.68773048 25,3.68773048 C19.1246328,3.68773048 13.0633165,5.12532033 11.7507344,6.37539846 C10.8131758,7.18794925 9.87561723,9.06306644 8.75054691,11.4382149 C7.81298831,13.5008438 7.06294143,15.4384649 7.06294143,16.5635352 L7.06294143,34.6256016 C7.06294143,36.0631914 7.56297269,36.6882305 9.50059379,38.1883243 C10.9381836,39.3133946 11.5632227,39.8134258 13.7508594,39.8134258 L17.8761173,39.8134258 L17.8761173,42.5010938 L32.3129571,42.5010938 L32.3129571,39.8134258 L36.375711,39.8134258 C38.5633477,39.8134258 39.1883868,39.3133946 40.5634727,38.1883243 C42.5010938,36.6257266 42.9386212,36.0631914 42.9386212,34.6256016 L42.9386212,16.5635352 C42.9386212,15.4384649 42.1885743,13.5008438 41.3135196,11.4382149 C40.1884493,9.06306644 39.3133946,7.18794925 38.375836,6.37539846 L38.3742734,6.37539846 Z M36.6866679,44.3746484 L36.6866679,41.7494843 L34.3740234,41.7494843 L34.3740234,44.3746484 L15.7494218,44.3746484 L15.7494218,41.7494843 L13.3742734,41.7494843 L13.3742734,44.3746484 L10.4990937,44.3746484 C9.81155072,44.3746484 9.24901556,44.9371836 9.24901556,45.5622226 C9.24901556,46.2497656 9.81155072,46.8123008 10.4990937,46.8123008 L39.6227889,46.8123008 C40.3103319,46.8123008 40.8103631,46.2497656 40.8103631,45.5622226 C40.8103631,44.9371836 40.3103319,44.3746484 39.6227889,44.3746484 L36.6851053,44.3746484 L36.6866679,44.3746484 Z M35.3740859,28.4377149 C35.1865742,29.5002813 34.1240078,30.3128321 33.0614413,30.3128321 L17.0620039,30.3128321 C15.9994375,30.3128321 14.9368711,29.5002813 14.7493593,28.4377149 L11.8116757,16.0010001 C11.624164,14.9384337 12.311707,14.1258829 13.3742734,14.1258829 L36.6866679,14.1258829 C37.7492343,14.1258829 38.4992812,14.9384337 38.2492656,16.0010001 L35.3740859,28.4377149 Z M34.4990312,8.56303519 L34.4990312,9.6256016 C34.4990312,10.4381524 33.8739921,11.1256954 33.0614413,11.1256954 L17.0620039,11.1256954 C16.2494531,11.1256954 15.5619101,10.4381524 15.5619101,9.6256016 L15.5619101,8.56303519 L34.4990312,8.56303519 L34.4990312,8.56303519 Z M15.5619101,34.9381211 C15.5619101,34.0630664 16.1869492,33.3755235 17.0620039,33.3755235 C17.9370586,33.3755235 18.6871054,34.0630664 18.6871054,34.9381211 C18.6871054,35.8131758 17.9370586,36.4382149 17.0620039,36.4382149 C16.1869492,36.4382149 15.5619101,35.8131758 15.5619101,34.9381211 Z M31.4988437,34.7506094 C31.4988437,33.8755547 32.1863866,33.1880118 33.0614413,33.1880118 C33.936496,33.1880118 34.624039,33.8755547 34.624039,34.7506094 C34.624039,35.6256641 33.936496,36.2507032 33.0614413,36.2507032 C32.1863866,36.2507032 31.4988437,35.6256641 31.4988437,34.7506094 Z"></path></g></svg>