<svg width="50" height="50" viewBox="0 0 34 34" class="" aria-hidden="true" xmlns="http://www.w3.org/2000/svg" xmlns:xlink="http://www.w3.org/1999/xlink"><path fill="#FFFFFF" d="M28.9 32.98H5.1c-2.254 0-4.08-1.826-4.08-4.08V5.1c0-2.254 1.826-4.08 4.08-4.08h23.8c2.254 0 4.08 1.826 4.08 4.08v23.8c0 2.254-1.826 4.08-4.08 4.08z"></path><path fill="#00985F" d="M.001 4.21C.001 1.915 1.914.002 4.21.002h25.497C32.086.002 34 1.915 34 4.21v25.498c0 2.38-1.913 4.292-4.293 4.292H4.21C1.914 34 0 32.087 0 29.707V4.21zm23.755 3.06c-.212-.51-.51-.765-1.02-.893-1.827-.467-3.145-.637-4.845-.68V4.21h3.145c.425 0 .765-.383.765-.808 0-.51-.34-.892-.765-.892h-7.989c-.51 0-.892.382-.892.892 0 .425.383.808.893.808h3.102v1.487c-1.742.043-3.145.213-4.845.68-.595.17-.893.383-1.147.893l-.723 1.742c-.213.51-.213 1.233-.213 1.785v15.3c0 .764.51 1.232 1.276 1.36 2.295.467 4.292.637 6.5.637 2.126 0 4.166-.17 6.545-.638.722-.127 1.275-.595 1.275-1.36V10.797c0-.552-.128-1.275-.34-1.785l-.723-1.742h.001zm-2.125 22.905V28.9l-1.572.213v1.062H13.98v-1.063L12.41 28.9v1.275h-1.275c-.468 0-.765.383-.765.765 0 .552.297.892.765.892h11.771c.383 0 .808-.34.808-.892 0-.383-.425-.765-.808-.765H21.63h.001zm-10.879-6.544c0-.595.425-1.062.978-1.062.595 0 1.02.467 1.02 1.062 0 .553-.425.935-1.02.935-.553 0-.978-.382-.978-.935zm.043-13.174h12.366v10.327c-1.615.467-3.91.765-6.162.765-2.21 0-4.505-.34-6.205-.765V10.457h.001zm10.666 13.174c0-.595.383-1.062.935-1.062.595 0 1.063.467 1.063 1.062 0 .553-.468.935-1.063.935-.552 0-.935-.382-.935-.935z"></path></svg>