<svg width="50" height="50" viewBox="0 0 50 50" class="" aria-hidden="true" xmlns="http://www.w3.org/2000/svg" xmlns:xlink="http://www.w3.org/1999/xlink"><g fill="none"><path fill="#FFFFFF" d="M42.5,48.5 L7.5,48.5 C4.1859375,48.5 1.5,45.8140625 1.5,42.5 L1.5,7.5 C1.5,4.1859375 4.1859375,1.5 7.5,1.5 L42.5,1.5 C45.8140625,1.5 48.5,4.1859375 48.5,7.5 L48.5,42.5 C48.5,45.8140625 45.8140625,48.5 42.5,48.5 Z"></path><path fill="#00B9E4" d="M0.0015625,6.190625 C0.0015625,2.815625 2.8140625,0.003125 6.1890625,0.003125 L43.6859375,0.003125 C47.1859375,0.003125 49.9984375,2.815625 49.9984375,6.190625 L49.9984375,43.6875 C49.9984375,47.1875 47.1859375,50 43.6859375,50 L6.1890625,50 C2.8140625,50 0.0015625,47.1875 0.0015625,43.6875 L0.0015625,6.190625 Z M7.5640625,42.25 C6.9390625,42.25 6.3765625,42.75 6.3765625,43.4375 C6.3765625,44.125 6.9390625,44.625 7.5640625,44.625 L42.4359375,44.625 C43.1234375,44.625 43.6859375,44.125 43.6859375,43.4375 C43.6859375,42.75 43.1234375,42.25 42.4359375,42.25 L7.5640625,42.25 Z M40.0609375,28.4390625 C40.0609375,28.4390625 35.0609375,27.1265625 31.6859375,26.3765625 C28.7484375,25.7515625 25.1234375,25.3140625 24.8734375,25.3140625 C24.6234375,25.3140625 21.0609375,25.7515625 18.0609375,26.3765625 C14.6859375,27.1265625 9.6859375,28.4390625 9.6859375,28.4390625 L11.0609375,40.3125 L38.7453125,40.3125 L40.0578125,28.4390625 L40.0609375,28.4390625 Z M18.0625,24.0015625 C21.0625,23.3765625 24.6875,22.9390625 24.875,22.8765625 C25.0625,22.9390625 28.6875,23.3765625 31.6875,24.0015625 C34,24.5015625 35.3125,24.8140625 37,25.2515625 L37,16.5640625 C37,15.4390625 37.3125,13.9390625 34.375,13.9390625 L28.9375,13.9390625 L28.9375,5.7515625 C28.9375,5.3140625 28.5625,4.9390625 28.125,4.8765625 L21.625,4.8765625 C21.1875,4.9390625 20.875,5.3140625 20.8125,5.7515625 L20.8125,13.9375 L15.375,13.9375 C12.4375,13.9375 12.75,15.4375 12.75,16.5625 L12.75,25.25 L18.0625,24 L18.0625,24.0015625 Z M21,18.503125 C21,19.815625 20,20.815625 18.6875,20.815625 C17.375,20.815625 16.375,19.815625 16.375,18.503125 C16.375,17.190625 17.375,16.190625 18.6875,16.190625 C20,16.190625 21,17.190625 21,18.503125 Z M27.1875,18.503125 C27.1875,19.815625 26.1875,20.815625 24.875,20.815625 C23.625,20.815625 22.5625,19.815625 22.5625,18.503125 C22.5625,17.190625 23.625,16.190625 24.875,16.190625 C26.1875,16.190625 27.1875,17.190625 27.1875,18.503125 Z M33.3734375,18.503125 C33.3734375,19.815625 32.3734375,20.815625 31.0609375,20.815625 C29.8109375,20.815625 28.7484375,19.815625 28.7484375,18.503125 C28.7484375,17.190625 29.8109375,16.190625 31.0609375,16.190625 C32.3734375,16.190625 33.3734375,17.190625 33.3734375,18.503125 Z"></path></g></svg>