<svg id="uuid-635b7095-0da1-4493-9877-440d91583fc6" data-name="pikaratikka" xmlns="http://www.w3.org/2000/svg" viewBox="0 0 283.46 283.46">
  <defs>
    <style>
      .uuid-6f73ae6e-ecea-4d56-a941-7b1d9b7a030b {
        fill: #fff;
      }

      .uuid-556b4679-78db-46d3-b6ab-816e83455452 {
        fill: #00b2a9;
      }
    </style>
  </defs>
  <path class="uuid-556b4679-78db-46d3-b6ab-816e83455452" d="m35.43.07h212.6c19.56,0,35.43,15.88,35.43,35.43v212.6c0,19.56-15.88,35.43-35.43,35.43H35.43C15.88,283.54,0,267.66,0,248.1V35.51C0,15.95,15.88.07,35.43.07Z"/>
  <path class="uuid-6f73ae6e-ecea-4d56-a941-7b1d9b7a030b" d="m211.24,176.51l-14.73-102.84c-.98-7.31-5.4-13.65-11.76-16.65-13.53-6.4-27.52-8.81-35.62-9.79v-12.47h26.06c3.86,0,6.99-3.13,6.99-6.99s-3.13-6.99-6.99-6.99h-66.52c-3.86,0-6.99,3.13-6.99,6.99s3.13,6.99,6.99,6.99h26.1v12.47c-8.14.98-22.13,3.39-35.66,9.79-6.36,3.01-10.75,9.35-11.73,16.65l-14.73,102.83c-1.1,7.73-.35,15.63,2.11,23,1.46,4.37,4.19,13.19,5.85,17.5,2.34,6.08,7.64,10.36,13.66,11.92,10.95,2.84,27.29,5.3,47.66,5.3s36.71-2.46,47.66-5.3c6.03-1.56,11.32-5.84,13.66-11.92,1.66-4.3,4.39-13.12,5.85-17.5,2.46-7.37,3.24-15.27,2.14-23Zm-13.24,14.41l-3.72,11.44c-.95,2.9-2.46,3.62-4.74,4.31-5.17,1.56-27.03,5.28-47.61,5.43-20.59-.15-42.4-3.87-47.57-5.43-2.27-.69-3.78-1.41-4.73-4.31l-3.72-11.44c-.85-2.58,1.29-4.41,4.17-3.63,8.92,2.42,18.83,4.44,27.08,6.06,2.5.49,4.82,2.04,5.91,4.27,1.28,2.62,3.84,4.42,6.58,4.59,3.75.24,8.13.38,12.28.38s8.52-.14,12.27-.38c2.74-.17,5.3-1.98,6.58-4.59,1.1-2.23,3.42-3.78,5.91-4.27,8.24-1.62,18.2-3.64,27.11-6.06,2.89-.78,5.03,1.05,4.18,3.63Zm-5.68-19.98c-11.87,3.8-30.74,7.93-50.38,7.93s-38.5-4.12-50.36-7.93c-2.63-.84-4.26-3.46-3.87-6.2l10.41-72.72c.34-2.36,2.12-4.26,4.46-4.74,10.23-2.12,24.17-4.09,39.36-4.09s29.16,1.97,39.39,4.09c2.34.48,4.12,2.38,4.46,4.74l10.41,72.72c.39,2.74-1.24,5.35-3.87,6.2Zm-10.12,70.19c-4.94,1.01-10.48,1.81-16.12,2.42,0,0,10.72,12.76,13.53,16.12,3.63,4.33,6.58,5.72,10.74,5.72,4.71,0,8.9-3.48,3.94-9.67-2.43-3.04-12.09-14.59-12.09-14.59Zm-80.5,0c4.94,1.01,10.48,1.81,16.12,2.42,0,0-10.72,12.76-13.53,16.12-3.63,4.33-6.58,5.72-10.74,5.72-4.71,0-8.9-3.48-3.94-9.67,2.43-3.04,12.09-14.59,12.09-14.59Z"/>
</svg>